<?xml version="1.0" encoding="utf-8"?>
<svg version="1.1" xmlns="http://www.w3.org/2000/svg" xmlns:xlink="http://www.w3.org/1999/xlink" x="0px" y="0px"
	 viewBox="0 792 320 48" enable-background="new 0 792 320 48" xml:space="preserve">
<g>
	<polygon fill="#FFFFFF" points="1,797.4 6,797.4 17.5,812.6 17.5,797.4 23,797.4 23,822.1 18.3,822.1 6.3,806.5 6.3,822.1 1,822.1 
			"/>
	<path fill="#FFFFFF" d="M53.7,811.5v-14.1h5.4v14c0,4,2.1,6.1,5.3,6.1c3.3,0,5.3-2.1,5.3-5.9v-14.1h5.4v14
		c0,7.5-4.2,11.2-10.8,11.2C57.7,822.5,53.7,818.8,53.7,811.5"/>
	<path fill="#FFFFFF" d="M85.4,807.9c0-0.5,0-6.9-0.1-8.3c-0.1-0.7-0.3-1.1-1.6-1.1h-1.4c-0.1,0-0.2-0.1-0.2-0.2v-0.9
		c0-0.2,0.1-0.3,0.2-0.3c0.4,0,1.6,0.1,5.4,0.1c3.3,0,4.5-0.1,5-0.1c0.2,0,0.3,0.1,0.3,0.2v0.9c0,0.2-0.1,0.3-0.3,0.3h-1.4
		c-1,0-1.2,0.3-1.3,0.9c0,0.6-0.1,5-0.1,9.3v1.6c0,4.4-0.1,7.9-0.1,8.7c0,2.1-0.3,3.7-1.4,5.6c-1.6,2.6-4.3,5-7.8,5
		c-0.8,0-2.6-0.6-2.6-2.4c0-1.1,0.8-2.1,2.1-2.1c1.5,0,2.5,1.1,3,2.4c0.8-0.1,1.5-0.9,1.9-2.2c0.7-2.6,0.4-12.8,0.4-15.4v-2.3H85.4z
		"/>
	<path fill="#FFFFFF" d="M117,799.5c2.7,2.2,4.8,5.6,4.8,10.5c0,2.6-0.7,5.3-2.6,7.8c-2.3,2.8-5.3,5-10.6,5c-2.2,0-5.1-0.6-8-2.4
		c-2.5-1.5-5.1-5.3-5.1-10.5c0-2.2,0.6-5.4,3.3-8.7c3.1-3.8,6.9-4.5,10-4.5C111.3,796.6,114.1,797.1,117,799.5 M103.5,800.1
		c-2.2,2.1-3.2,5.7-3.2,8.5c0,9.1,5.6,12.4,8.6,12.4c7.1,0,8.2-7.9,8.2-10.9c0-7.7-5.2-12.1-8.6-12.1
		C107.9,798.2,105.8,797.8,103.5,800.1"/>
	<path fill="#FFFFFF" d="M127.5,800.2c0-1.2-0.3-1.7-1.2-1.7h-1.6c-0.2,0-0.3-0.1-0.3-0.3v-0.8c0-0.2,0.1-0.3,0.3-0.3
		c0.3,0,2.1,0.1,5.4,0.1c3,0,4.6-0.1,5-0.1c0.2,0,0.3,0.1,0.3,0.2v0.9c0,0.2-0.1,0.3-0.3,0.3h-1.4c-1,0-1.6,0.6-1.7,1.3
		c0,0.4-0.1,2.6-0.1,4.6v4.4c0,1.7,0,4.3,0.1,5.4c0.1,1.6,0.4,3.3,1.2,4.4c1.2,1.6,3.1,2.2,4.8,2.2c1.6,0,3.6-0.6,4.7-1.6
		c1.3-1.3,2.1-3.4,2.1-5.9v-6.4c0-2.8-0.3-5.9-0.4-6.8c-0.1-0.9-0.7-1.5-1.4-1.5h-1.2c-0.2,0-0.3-0.1-0.3-0.2v-1
		c0-0.2,0.1-0.3,0.3-0.3c0.3,0,1.9,0.1,4.3,0.1c2.2,0,3.3-0.1,3.6-0.1c0.3,0,0.3,0.1,0.3,0.3v0.8c0,0.2,0,0.3-0.2,0.3h-1.2
		c-1.2,0-1.4,1-1.4,1.3c-0.1,0.4-0.1,5.3-0.1,5.8c0,0.5-0.1,6.7-0.2,8c-0.2,2.9-1,5-3,6.8c-1.4,1.3-3.7,2.2-6.5,2.2
		c-1.6,0-3.7-0.3-5-0.8c-2.1-0.8-3.5-2.5-4.2-4.7c-0.5-1.5-0.6-3.9-0.6-8.5v-8.3H127.5z"/>
	<path fill="#FFFFFF" d="M159.1,812.8c0,2.2,0.1,6.1,0.1,6.6c0.1,0.7,0.3,1.3,0.9,1.3h1.7c0.2,0,0.3,0.1,0.3,0.2v0.8
		c0,0.2-0.1,0.3-0.4,0.3c-0.4,0-1.1-0.1-4.8-0.1c-3.5,0-4.3,0.1-4.6,0.1c-0.2,0-0.3-0.1-0.3-0.3V821c0-0.2,0.1-0.3,0.2-0.3h1.2
		c0.8,0,1.3-0.2,1.3-1.1c0.1-3.5,0.1-6.9,0.1-10.2v-9.2c0-1.2-0.5-1.7-1.1-1.7h-1.3c-0.2,0-0.2-0.1-0.2-0.2v-0.9
		c0-0.2,0.1-0.2,0.2-0.2c0.2,0,1.3,0.1,4.8,0.1c1.9,0,5.2-0.1,6.3-0.1c2.8,0,5,0.9,6.5,2.3c1.2,1.1,1.9,2.6,1.9,3.9
		c0,4.4-2.7,6.3-6.6,6.9v0.1c1,0.3,1.6,1,2.2,1.6c0.4,0.5,2.6,3.9,2.9,4.3c0.2,0.3,2.5,3.5,3,4c0.7,0.6,1.6,0.7,2.5,0.7
		c0.2,0,0.3,0.1,0.3,0.2v0.7c0,0.2-0.1,0.3-0.3,0.3c-0.3,0-1.2-0.1-3.5-0.1c-1,0-2.4,0.1-3.1,0.1c-0.4-0.3-1.1-1.2-1.5-2.1
		c-0.6-1-2.1-3.5-2.4-4.1c-0.3-0.6-1.3-2.3-1.9-3.1c-0.9-1.2-1.6-2.2-3.2-2.2c-0.1,0-0.7,0-1.1,0.1V812.8z M159.1,809.7
		c0.5,0.1,0.9,0.1,1.3,0.1c5.5,0,6.7-4.4,6.7-6.1s-0.7-3.2-1.5-3.9c-1.2-1.1-2.9-1.5-4.6-1.5c-0.5,0-1,0-1.2,0.2
		c-0.3,0.2-0.4,0.6-0.4,1L159.1,809.7z"/>
	<path fill="#FFFFFF" d="M181,806.2c0,5.9,0.3,11,0.3,12c0.1,1.7,0.5,2.6,1.7,2.6h0.9c0.3,0,0.3,0.1,0.3,0.3v0.8
		c0,0.2,0,0.3-0.3,0.3c-0.3,0-2.5-0.1-3.8-0.1c-0.9,0-3.3,0.1-3.7,0.1c-0.1,0-0.2-0.1-0.2-0.3V821c0-0.1,0.1-0.2,0.2-0.2h1.2
		c0.9,0,1.4-0.8,1.5-3c0-0.6,0.2-5.5,0.2-11.2v-4.5c0-2.2-1.2-3.7-2.8-3.7h-1.1c-0.1,0-0.2-0.1-0.2-0.2v-1c0-0.1,0.1-0.2,0.2-0.2
		c0.2,0,0.4,0,1.1,0.1c0.6,0,1.5,0,3.2,0c0.6,0,1.1,0,1.5-0.1c0.4,0,0.8,0,1,0c0.4,0,0.6,0.1,0.8,0.3c0.3,0.3,7.3,9,8,10.1
		c0.5,0.5,5.9,7.4,6.6,8.1h0.1v-3.7c0-3.1,0-4.8-0.1-6.7c-0.1-1.3-0.2-4.8-0.4-5.4c-0.2-0.8-1-1.3-1.8-1.3h-1.1
		c-0.2,0-0.2-0.1-0.2-0.3v-0.7c0-0.2,0-0.3,0.3-0.3c0.4,0,1.5,0.1,3.9,0.1c2.2,0,3-0.1,3.4-0.1c0.3,0,0.3,0.1,0.3,0.2v0.8
		c0,0.2-0.1,0.3-0.2,0.3h-1c-0.7,0-1,0.5-1.1,1.8c-0.2,2.4-0.5,8.3-0.5,11.9v9.3c0,0.5,0,1-0.4,1c-0.5,0-0.9-0.3-1.2-0.5
		c-0.3-0.3-2.2-2.6-4.4-5.1c-2.5-3.1-5.2-6.4-5.6-6.9c-0.5-0.5-6.2-7.6-6.6-8h-0.2v4.2H181z"/>
	<path fill="#FFFFFF" d="M210.3,812.4c-0.3,0.8-2.1,5.8-2.2,6.8c-0.1,0.3-0.1,0.6-0.1,0.7c0,0.4,0.5,0.8,1.2,0.8h1.4
		c0.3,0,0.3,0.1,0.3,0.2v0.9c0,0.2-0.1,0.3-0.3,0.3c-0.5,0-1.9-0.1-4.4-0.1c-2.6,0-3.4,0.1-3.9,0.1c-0.2,0-0.2-0.2-0.2-0.4V821
		c0-0.2,0.1-0.3,0.2-0.3h1c1,0,1.6-0.5,2.3-1.5c0.3-0.6,2.9-7,3.9-10l3.5-9.2c0.1-0.3,0.3-1,0.1-1.2c-0.1-0.1-0.2-0.3-0.2-0.4
		s0.1-0.3,0.3-0.3c1.1-0.3,3.1-1.3,3.5-1.7c0.2-0.2,0.3-0.3,0.5-0.3s0.3,0.4,0.4,0.6c0.6,2.2,3.4,10.1,4,12.3
		c0.8,2.8,3.1,9.3,3.6,10.3c0.6,1.2,1.5,1.6,2.3,1.6h1.1c0.2,0,0.3,0.1,0.3,0.2v0.7c0,0.2-0.1,0.4-0.3,0.4c-0.6,0-1.3-0.1-5.2-0.1
		c-3,0-4.2,0.1-4.9,0.1c-0.3,0-0.3-0.2-0.3-0.4V821c0-0.2,0.1-0.3,0.3-0.3h0.9c1,0,1.2-0.3,1-1.3c-0.3-1.2-1.6-5.7-2.2-7.1h-8V812.4
		z M218.1,811c-0.3-1-2.8-9-3-9.7c-0.1-0.4-0.2-0.6-0.3-0.6c-0.2,0-0.3,0.1-0.4,0.4c-0.1,0.4-3.3,9.1-3.6,10H218.1z"/>
	<path fill="#FFFFFF" d="M251.9,814.9c0.1,0.1,0.1,0.1,0.1,0.3c-0.1,0.2-1.5,6.1-1.7,7c-0.9,0-11.1-0.1-14.7-0.1
		c-3.2,0-4.4,0.1-4.8,0.1c-0.3,0-0.3-0.1-0.3-0.3V821c0-0.2,0-0.3,0.2-0.3h1.4c1.2,0,1.4-0.5,1.4-0.9c0-0.6,0.1-9.4,0.1-11.6v-1.9
		c0-2.3-0.1-5.9-0.1-6.6c-0.1-0.9-0.2-1.2-1.1-1.2H231c-0.2,0-0.3-0.2-0.3-0.3v-0.8c0-0.2,0.1-0.3,0.3-0.3c0.3,0,1.6,0.1,4.8,0.1
		c3.8,0,5.3-0.1,5.5-0.1c0.3,0,0.3,0.1,0.3,0.3v0.8c0,0.1-0.1,0.3-0.3,0.3h-1.9c-1,0-1.2,0.3-1.2,1.3c0,0.5-0.1,5.7-0.1,8.2v3.1
		c0,0.6,0,8.2,0.1,9.7h1.9c1.9,0,4.5,0,5.9-0.2c1.9-0.3,4.2-4.5,4.7-5.8c0.1-0.1,0.2-0.2,0.4-0.1L251.9,814.9z"/>
	<path fill="#FFFFFF" d="M260.7,810.7c0,0.3,0.1,8.4,0.1,8.8c0,1.1,0.5,1.2,1.4,1.2h1.4c0.1,0,0.3,0.1,0.3,0.2v0.9
		c0,0.2-0.1,0.3-0.3,0.3c-0.4,0-1.8-0.1-5.1-0.1c-3.5,0-5,0.1-5.4,0.1c-0.2,0-0.3-0.1-0.3-0.2V821c0-0.1,0.1-0.2,0.3-0.2h1.4
		c0.7,0,1.4-0.1,1.6-1c0.1-0.5,0.1-8.1,0.1-10.1v-2.5c0-0.8-0.1-7.2-0.1-7.7c-0.1-0.8-0.4-1.2-1.4-1.2h-1.8c-0.2,0-0.3-0.1-0.3-0.2
		v-0.8c0-0.2,0.1-0.2,0.2-0.2c0.4,0,2.3,0.1,5.7,0.1c3.4,0,4.5-0.1,5-0.1c0.2,0,0.3,0.1,0.3,0.3v0.8c0,0.2-0.1,0.3-0.3,0.3h-1.3
		c-0.8,0-1.3,0.3-1.3,0.9c0,0.3-0.1,8.1-0.1,8.5v2.7H260.7z"/>
	<path fill="#FFFFFF" d="M268.8,814.3c0.1,0,0.2,0.1,0.2,0.3c0.1,1.1,0.3,2.5,1.3,4c1,1.6,2.9,2.6,4.6,2.6c1.9,0,4.6-1.2,4.6-4.1
		c0-3.3-1.4-4.3-5.2-5.7c-1.1-0.4-3.5-1.4-5.1-3c-1.2-1.1-1.7-2.9-1.7-5c0-1.9,0.8-3.6,2.5-4.9c1.4-1.2,3-1.6,5-1.6
		c2.4,0,3.7,0.6,4.4,0.8c0.3,0.1,0.5,0.1,0.7-0.1l0.4-0.4c0.1-0.1,0.3-0.2,0.5-0.2s0.3,0.2,0.3,0.5c0,0.5,0.5,5.5,0.5,5.8
		c0,0.1-0.1,0.2-0.2,0.2l-0.5,0.2c-0.1,0-0.3,0-0.3-0.2c-0.3-1-0.9-2.4-2.2-3.7c-0.9-1-2.1-1.4-3.7-1.4c-2.8,0-3.9,2.3-3.9,3.6
		c0,1.2,0.1,2.3,1,3.2s2.9,1.7,4.3,2.2c2.1,0.6,3.7,1.3,5,2.8c1.1,1.2,1.7,2.7,1.7,5c0,4.3-2.8,7.8-7.5,7.8c-2.9,0-4.6-0.6-5.9-1.6
		c-0.4-0.3-0.6-0.4-0.8-0.4s-0.3,0.3-0.5,0.6s-0.3,0.4-0.6,0.4c-0.3,0-0.4-0.2-0.4-0.5c0.1-0.4,0.5-6.2,0.6-6.6
		c0-0.2,0.1-0.3,0.2-0.3L268.8,814.3z"/>
	<path fill="#FFFFFF" d="M311.1,809.3c0-1,0-9.8-0.1-10h-0.1c-0.3,0.5-4.7,10.8-5.1,11.7c-0.5,1.1-4.1,9.4-4.3,9.8
		c-0.1,0.3-0.4,0.8-0.8,0.8c-0.2,0-0.4-0.2-0.6-0.6c-0.1-0.2-4.7-11.2-4.9-11.8c-0.6-1.6-3.9-9.5-4.3-10c-0.1,0.5-0.2,9.3-0.2,9.8
		c0,0.4,0,6.5,0.2,8.7c0.1,1.6,0.6,3,1.6,3h1.5c0.2,0,0.3,0.1,0.3,0.2v0.9c0,0.1-0.1,0.3-0.3,0.3c-0.3,0-1.3-0.1-4-0.1
		c-3.1,0-4.2,0.1-4.6,0.1c-0.3,0-0.3-0.1-0.3-0.3v-1c0-0.1,0-0.2,0.2-0.2h1.6c1.2,0,1.5-1.2,1.7-2.5c0.3-2.5,0.5-11.2,0.5-11.8v-6.1
		c0-1.2-0.2-2.1-1.7-2.1h-1.5c-0.2,0-0.3-0.1-0.3-0.2v-1c0-0.1,0.1-0.2,0.3-0.2c0.3,0,1.2,0.1,5,0.1c1.6,0,2.7-0.1,3.1-0.1
		c0.4,0,0.7,0.1,0.8,0.6c1.2,3.3,6.2,15,7.3,18c0.3-0.6,2.8-6.5,3.7-8.5c0.6-1.4,3.8-8.7,4-9.4c0.1-0.3,0.5-0.4,1.3-0.4
		c5.1,0,6.4-0.1,6.8-0.1c0.1,0,0.2,0.1,0.2,0.3v0.7c0,0.2-0.1,0.3-0.3,0.3h-1.5c-0.9,0-1,0.6-1,1.3c0,0.8,0,7.8,0,8.7v2.5
		c0,2.2,0.1,7.3,0.1,7.9c0,1.3,0.3,1.9,1,1.9h1.9c0.2,0,0.2,0.1,0.2,0.2v0.8c0,0.2,0,0.3-0.3,0.3c-0.4,0-2.2-0.1-5.2-0.1
		c-3.5,0-4.8,0.1-5.3,0.1c-0.2,0-0.3-0.1-0.3-0.3V821c0-0.2,0.1-0.3,0.3-0.3h2.2c0.6,0,0.9-0.2,1-1.2c0-0.3,0.1-5.4,0.1-8.2v-1.9
		H311.1z"/>
	<path fill="#FFFFFF" d="M95.4,828.7h0.7l3.2,7h-0.8l-0.8-1.8h-3.8l-0.8,1.8h-0.8L95.4,828.7z M97.2,833.2l-1.5-3.5l-1.5,3.5H97.2z"
		/>
	<path fill="#FFFFFF" d="M100.6,828.8h3c0.8,0,1.5,0.3,1.9,0.7c0.3,0.3,0.5,0.8,0.5,1.3l0,0c0,1.1-0.8,1.8-1.8,2.1l2.2,2.9h-0.9
		l-2.1-2.7h-1.9v2.7h-0.8L100.6,828.8L100.6,828.8z M103.5,832.3c1,0,1.7-0.5,1.7-1.4l0,0c0-0.8-0.6-1.3-1.7-1.3h-2.2v2.8H103.5z"/>
	<polygon fill="#FFFFFF" points="109.5,829.5 107.2,829.5 107.2,828.8 112.6,828.8 112.6,829.5 110.4,829.5 110.4,835.7 
		109.5,835.7 	"/>
	<polygon fill="#FFFFFF" points="114.1,828.8 114.9,828.8 114.9,831.9 118.9,831.9 118.9,828.8 119.7,828.8 119.7,835.7 
		118.9,835.7 118.9,832.6 114.9,832.6 114.9,835.7 114.1,835.7 	"/>
	<path fill="#FFFFFF" d="M121.5,832.8v-4h0.8v4c0,1.5,0.8,2.4,2.2,2.4c1.2,0,2.1-0.8,2.1-2.3v-4h0.8v4c0,2.1-1.1,3.1-2.9,3.1
		C122.7,835.8,121.5,834.8,121.5,832.8"/>
	<path fill="#FFFFFF" d="M129.1,828.8h3c0.8,0,1.5,0.3,1.9,0.7c0.3,0.3,0.5,0.8,0.5,1.3l0,0c0,1.1-0.8,1.8-1.8,2.1l2.2,2.9h-0.9
		l-2.1-2.7h-1.9v2.7h-0.8V828.8z M132.1,832.3c1,0,1.7-0.5,1.7-1.4l0,0c0-0.8-0.6-1.3-1.7-1.3h-2.2v2.8H132.1z"/>
	<polygon fill="#FFFFFF" points="139.3,828.8 140.1,828.8 140.1,835 144,835 144,835.7 139.3,835.7 	"/>
	<rect x="145.2" y="834.7" fill="#FFFFFF" width="0.9" height="1"/>
	<path fill="#FFFFFF" d="M150.5,832.3L150.5,832.3c0-1.9,1.4-3.6,3.5-3.6c1.2,0,2.1,0.4,2.7,1.1l-0.5,0.6c-0.6-0.5-1.2-0.9-2.2-0.9
		c-1.5,0-2.7,1.2-2.7,2.9l0,0c0,1.6,1.1,2.9,2.7,2.9c0.9,0,1.5-0.4,2.3-1l0.5,0.5c-0.7,0.7-1.5,1.2-2.8,1.2
		C152,835.8,150.5,834.3,150.5,832.3"/>
	<path fill="#FFFFFF" d="M160.7,828.7h0.7l3.2,7h-0.8l-0.8-1.8h-3.8l-0.8,1.8h-0.8L160.7,828.7z M162.7,833.2l-1.5-3.5l-1.5,3.5
		H162.7z"/>
	<path fill="#FFFFFF" d="M165.9,828.8h3c0.8,0,1.5,0.3,1.9,0.7c0.3,0.3,0.5,0.8,0.5,1.3l0,0c0,1.1-0.8,1.8-1.8,2.1l2.2,2.9h-0.9
		l-2.1-2.7h-1.9v2.7h-0.8V828.8z M168.8,832.3c1,0,1.7-0.5,1.7-1.4l0,0c0-0.8-0.6-1.3-1.7-1.3h-2.2v2.8H168.8z"/>
	<polygon fill="#FFFFFF" points="174.9,829.5 172.5,829.5 172.5,828.8 178,828.8 178,829.5 175.7,829.5 175.7,835.7 174.9,835.7 	
		"/>
	<polygon fill="#FFFFFF" points="179.5,828.8 184.5,828.8 184.5,829.5 180.2,829.5 180.2,831.9 184,831.9 184,832.6 180.2,832.6 
		180.2,835 184.5,835 184.5,835.7 179.5,835.7 	"/>
	<path fill="#FFFFFF" d="M186.1,828.8h3c0.8,0,1.5,0.3,1.9,0.7c0.3,0.3,0.5,0.8,0.5,1.3l0,0c0,1.1-0.8,1.8-1.8,2.1l2.2,2.9h-0.9
		l-2.1-2.7h-1.9v2.7h-0.8V828.8z M189,832.3c1,0,1.7-0.5,1.7-1.4l0,0c0-0.8-0.6-1.3-1.7-1.3h-2.2v2.8H189z"/>
	<path fill="#FFFFFF" d="M195.6,834.6l0.6-0.5c0.4,0.6,0.8,1,1.5,1c0.8,0,1.3-0.6,1.3-1.6v-4.6h0.8v4.6c0,0.8-0.2,1.4-0.6,1.8
		s-0.9,0.6-1.5,0.6C196.6,835.8,196,835.3,195.6,834.6"/>
	<path fill="#FFFFFF" d="M201.4,832.3L201.4,832.3c0-1.9,1.4-3.6,3.6-3.6s3.5,1.6,3.5,3.6l0,0c0,1.9-1.4,3.6-3.6,3.6
		C202.8,835.8,201.4,834.2,201.4,832.3 M207.7,832.3L207.7,832.3c0-1.6-1.1-2.9-2.8-2.9c-1.5,0-2.7,1.2-2.7,2.9l0,0
		c0,1.5,1.1,2.9,2.8,2.9C206.6,835.1,207.7,833.8,207.7,832.3"/>
	<path fill="#FFFFFF" d="M210.1,832.8v-4h0.8v4c0,1.5,0.8,2.4,2.2,2.4c1.2,0,2.1-0.8,2.1-2.3v-4h0.8v4c0,2.1-1.1,3.1-2.9,3.1
		C211.2,835.8,210.1,834.8,210.1,832.8"/>
	<path fill="#FFFFFF" d="M217.7,828.8h3c0.8,0,1.5,0.3,1.9,0.7c0.3,0.3,0.5,0.8,0.5,1.3l0,0c0,1.1-0.8,1.8-1.8,2.1l2.2,2.9h-0.9
		l-2.1-2.7h-1.9v2.7h-0.8V828.8z M220.5,832.3c1,0,1.7-0.5,1.7-1.4l0,0c0-0.8-0.6-1.3-1.7-1.3h-2.1v2.8H220.5z"/>
	<polygon fill="#FFFFFF" points="224.8,828.8 225.5,828.8 230,834.4 230,828.8 230.7,828.8 230.7,835.7 230.1,835.7 225.5,830.1 
		225.5,835.7 224.8,835.7 	"/>
	<path fill="#FFFFFF" d="M235.2,828.7h0.7l3.2,7h-0.8l-0.8-1.8h-3.8l-0.8,1.8H232L235.2,828.7z M237.1,833.2l-1.5-3.5l-1.5,3.5
		H237.1z"/>
	<polygon fill="#FFFFFF" points="240.4,828.8 241.2,828.8 241.2,835 245.1,835 245.1,835.7 240.4,835.7 	"/>
	<rect x="246.7" y="828.8" fill="#FFFFFF" width="0.8" height="7"/>
	<path fill="#FFFFFF" d="M249,834.7l0.5-0.6c0.7,0.6,1.4,1,2.4,1c0.9,0,1.5-0.5,1.5-1.1l0,0c0-0.6-0.3-1-1.8-1.3
		c-1.6-0.3-2.4-0.8-2.4-2.1l0,0c0-1.1,0.9-1.8,2.3-1.8c1,0,1.7,0.3,2.5,0.8l-0.4,0.6c-0.6-0.5-1.3-0.7-2.1-0.7
		c-0.9,0-1.4,0.5-1.4,1.1l0,0c0,0.6,0.3,1,1.8,1.3s2.3,0.9,2.3,1.9l0,0c0,1.2-1,1.9-2.4,1.9C250.8,835.8,249.9,835.5,249,834.7"/>
	<polygon fill="#FFFFFF" points="255.8,828.8 256.6,828.8 259.1,832.6 261.7,828.8 262.5,828.8 262.5,835.7 261.7,835.7 
		261.7,830.2 259.1,833.8 259.1,833.8 256.5,830.2 256.5,835.7 255.8,835.7 	"/>
	<rect x="267.4" y="828.8" fill="#FFFFFF" width="0.8" height="7"/>
	<polygon fill="#FFFFFF" points="270.3,828.8 271,828.8 275.4,834.4 275.4,828.8 276.1,828.8 276.1,835.7 275.5,835.7 271,830.1 
		271,835.7 270.3,835.7 	"/>
	<path fill="#FFFFFF" d="M277.7,834.7l0.5-0.6c0.7,0.6,1.4,1,2.4,1s1.5-0.5,1.5-1.1l0,0c0-0.6-0.3-1-1.8-1.3
		c-1.6-0.3-2.4-0.8-2.4-2.1l0,0c0-1.1,0.9-1.8,2.3-1.8c1,0,1.7,0.3,2.5,0.8l-0.4,0.6c-0.6-0.5-1.3-0.7-2.1-0.7
		c-0.9,0-1.4,0.5-1.4,1.1l0,0c0,0.6,0.3,1,1.8,1.3s2.3,0.9,2.3,1.9l0,0c0,1.2-1,1.9-2.4,1.9C279.4,835.8,278.5,835.5,277.7,834.7"/>
	<polygon fill="#FFFFFF" points="286.1,829.5 283.8,829.5 283.8,828.8 289.3,828.8 289.3,829.5 286.9,829.5 286.9,835.7 
		286.1,835.7 	"/>
	<rect x="290.8" y="828.8" fill="#FFFFFF" width="0.8" height="7"/>
	<polygon fill="#FFFFFF" points="295.4,829.5 293,829.5 293,828.8 298.6,828.8 298.6,829.5 296.2,829.5 296.2,835.7 295.4,835.7 	
		"/>
	<path fill="#FFFFFF" d="M299.9,832.8v-4h0.8v4c0,1.5,0.8,2.4,2.2,2.4c1.2,0,2.1-0.8,2.1-2.3v-4h0.8v4c0,2.1-1.1,3.1-2.9,3.1
		C301,835.8,299.9,834.8,299.9,832.8"/>
	<polygon fill="#FFFFFF" points="309.4,829.5 307,829.5 307,828.8 312.4,828.8 312.4,829.5 310.2,829.5 310.2,835.7 309.4,835.7 	
		"/>
	<polygon fill="#FFFFFF" points="314,828.8 319,828.8 319,829.5 314.7,829.5 314.7,831.9 318.5,831.9 318.5,832.6 314.7,832.6 
		314.7,835 319,835 319,835.7 314,835.7 	"/>
	<polygon fill="#FFFFFF" points="35.8,812.4 26.3,797.4 32.7,797.4 38.5,807.3 44.5,797.4 50.6,797.4 41.2,812.3 41.2,822.1 
		35.8,822.1 	"/>
</g>
</svg>
